<?xml version="1.0" standalone="no"?>
<!DOCTYPE svg PUBLIC "-//W3C//DTD SVG 20010904//EN"
 "http://www.w3.org/TR/2001/REC-SVG-20010904/DTD/svg10.dtd">
<svg version="1.0" xmlns="http://www.w3.org/2000/svg"
 width="310.000000pt" height="310.000000pt" viewBox="0 0 310.000000 310.000000"
 preserveAspectRatio="xMidYMid meet">
<metadata>
Created by potrace 1.11, written by Peter Selinger 2001-2013
</metadata>
<g transform="translate(0.000000,310.000000) scale(0.100000,-0.100000)"
fill="#000000" stroke="none">
<path d="M0 2589 l0 -510 58 32 c31 18 98 56 147 84 50 29 122 69 160 90 39
21 122 67 185 103 398 225 468 264 490 278 14 8 54 31 90 50 36 20 115 65 177
100 101 57 119 63 185 69 40 3 120 10 178 15 58 6 195 17 305 25 110 9 310 24
445 35 345 27 350 27 366 5 8 -11 13 -24 11 -30 -4 -11 -229 -142 -577 -335
-25 -14 -72 -41 -104 -59 l-60 -35 24 -15 c109 -72 225 -217 251 -314 5 -21
12 -44 15 -52 3 -8 -6 -20 -23 -30 -27 -16 -27 -16 39 -10 36 3 124 2 194 -1
l127 -7 -40 -16 -41 -16 45 -50 c67 -74 140 -186 189 -291 80 -170 159 -443
136 -466 -5 -5 -68 -7 -141 -6 l-133 3 -30 90 c-48 149 -159 352 -254 466 -43
52 -57 61 -78 53 -13 -5 -10 -13 19 -45 50 -55 47 -69 -16 -69 -45 0 -53 4
-84 38 -19 20 -35 43 -35 50 0 6 -4 12 -10 12 -18 0 -10 23 17 52 15 15 37 28
50 28 31 0 21 20 -27 55 -52 38 -60 32 -35 -27 6 -16 1 -18 -43 -18 -48 0 -51
-2 -114 -69 -228 -241 -459 -756 -637 -1423 l-57 -213 -298 -3 -298 -2 7 42
c4 24 33 122 65 218 183 555 455 1076 693 1327 l70 73 -48 0 c-52 0 -125 -18
-125 -32 0 -4 -19 -8 -43 -8 -56 0 -167 -31 -246 -70 -62 -30 -97 -33 -89 -8
7 19 60 47 161 85 154 58 229 74 387 80 142 6 145 6 190 38 109 76 374 174
472 175 15 0 29 4 32 8 3 4 -11 41 -30 80 -40 83 -129 184 -204 232 l-50 32
-57 -33 c-106 -59 -118 -66 -205 -118 -48 -28 -95 -55 -105 -59 -10 -4 -79
-41 -153 -83 l-135 -77 -150 -10 c-125 -9 -152 -8 -161 4 -26 32 -34 -9 -34
-171 0 -159 0 -162 25 -185 25 -23 25 -24 25 -212 0 -104 -4 -197 -10 -207
-24 -45 -115 -51 -158 -10 -20 18 -22 29 -22 153 0 116 -2 134 -16 132 -50 -4
-86 293 -50 405 10 28 15 54 12 57 -3 3 -70 0 -148 -7 -323 -26 -547 -43 -605
-44 l-63 -2 0 -1007 0 -1008 1550 0 1550 0 0 615 0 615 -28 0 c-15 0 -33 5
-40 12 -7 7 -12 25 -12 40 0 26 3 28 40 28 l40 0 0 895 0 895 -1550 0 -1550 0
0 -511z m2885 -606 c38 -56 34 -63 -34 -63 -58 0 -61 1 -95 44 -20 23 -36 46
-36 50 0 3 31 6 70 6 69 0 69 0 95 -37z m89 -185 c9 -12 16 -33 16 -45 0 -21
-5 -23 -50 -23 -48 0 -50 2 -69 39 -11 21 -17 41 -14 45 4 3 28 6 54 6 38 0
51 -5 63 -22z m-1714 -172 c0 -8 -5 -18 -10 -21 -6 -4 -22 -25 -36 -46 -24
-39 -26 -40 -77 -37 l-52 3 -3 43 c-5 64 7 72 99 72 62 0 79 -3 79 -14z m914
-18 c-42 -83 -49 -88 -125 -88 -38 0 -69 3 -69 8 0 4 14 31 30 60 l30 52 75 0
76 0 -17 -32z m316 5 c11 -14 19 -31 17 -37 -4 -13 -50 -20 -81 -12 -18 4 -56
52 -56 70 0 3 22 6 49 6 42 0 53 -4 71 -27z m544 11 c3 -9 6 -27 6 -40 0 -21
-4 -24 -39 -24 -42 0 -56 11 -66 53 -7 27 -7 27 43 27 36 0 52 -4 56 -16z
m-460 -166 c28 -40 21 -58 -24 -58 -31 0 -43 5 -56 25 -23 35 -12 55 30 55 25
0 39 -7 50 -22z m504 -11 c17 -36 9 -47 -39 -47 -33 0 -41 4 -49 26 -14 35 4
56 44 52 22 -2 35 -11 44 -31z m-443 -149 c3 -7 6 -24 7 -38 3 -22 -1 -25 -30
-28 -42 -4 -62 12 -62 49 0 27 3 29 40 29 23 0 43 -5 45 -12z m-1636 -104
l-34 -64 -82 0 c-46 0 -83 3 -83 8 0 4 14 35 32 69 l33 62 80 3 c44 2 82 -1
84 -6 2 -5 -12 -37 -30 -72z m998 72 c3 -3 -7 -35 -22 -71 l-28 -65 -74 0
c-40 0 -73 2 -73 5 0 16 44 122 55 130 12 10 132 12 142 1z m-1177 -446 c0 -5
-12 -39 -27 -75 l-27 -65 -77 0 c-43 0 -80 4 -83 9 -3 5 7 39 24 75 l29 66 81
0 c45 0 80 -4 80 -10z m1012 -8 c-10 -51 -27 -109 -35 -119 -13 -18 -147 -18
-147 0 0 15 29 117 37 130 3 4 37 7 76 5 53 -2 71 -6 69 -16z m-1177 -431 c5
-9 -27 -140 -40 -161 -3 -5 -42 -10 -86 -10 -90 0 -89 -2 -63 88 27 94 25 92
109 92 40 0 76 -4 80 -9z m1055 -8 c0 -10 -9 -49 -18 -88 l-18 -70 -77 -3
c-58 -2 -77 0 -77 10 0 27 35 153 45 160 5 4 40 8 78 8 57 0 67 -3 67 -17z"/>
<path d="M2360 2885 c-85 -7 -225 -18 -310 -24 -85 -7 -197 -16 -247 -21 -51
-6 -148 -13 -215 -16 -128 -6 -147 -12 -272 -84 -84 -48 -339 -192 -486 -275
-91 -51 -194 -109 -230 -130 -36 -20 -99 -56 -140 -78 -41 -23 -120 -67 -175
-100 l-100 -59 100 6 c55 3 218 15 363 26 187 15 267 19 276 11 13 -11 40 12
339 297 65 61 126 112 136 112 22 0 41 -19 41 -41 0 -15 -298 -301 -336 -322
-34 -19 -6 -22 114 -12 127 11 129 12 205 58 43 26 80 47 84 47 3 0 94 50 202
111 376 213 577 327 701 396 69 39 141 80 160 92 l35 21 -45 -1 c-25 -1 -115
-7 -200 -14z"/>
<path d="M1059 2143 c-13 -16 -12 -17 4 -4 9 7 17 15 17 17 0 8 -8 3 -21 -13z"/>
<path d="M903 2082 c-31 -5 -39 -18 -58 -106 -19 -86 -16 -196 7 -271 12 -40
12 -40 16 -10 1 18 15 40 33 56 l30 26 -3 154 c-3 152 -3 154 -25 151z"/>
</g>
</svg>
